<svg width="1024" height="1024" viewBox="0 0 1024 1024" fill="none" xmlns="http://www.w3.org/2000/svg">
<mask id="mask0_1_17" style="mask-type:alpha" maskUnits="userSpaceOnUse" x="0" y="0" width="1024" height="1024">
<rect width="1024" height="1024" rx="512" fill="#9A2C41"/>
</mask>
<g mask="url(#mask0_1_17)">
<rect width="1024" height="1024" fill="#9A2C41"/>
<path d="M-37 1066L383 252.5L418.5 452.5L545.5 389L608.5 463L666.5 607.5L508.5 1083L-37 1066Z" fill="#67102B"/>
<path d="M435.737 300.098C435.737 324.618 434.919 350.364 433.285 377.336C432.059 403.899 430.424 429.85 428.381 455.187C433.693 444.153 440.641 434.754 449.223 426.989C457.805 418.816 467.204 412.277 477.421 407.373C488.046 402.469 499.08 398.791 510.523 396.339C521.965 393.887 532.999 392.661 543.625 392.661C562.015 392.661 579.179 396.135 595.117 403.082C611.463 409.621 625.562 419.429 637.414 432.506C649.674 445.175 659.073 461.113 665.612 480.32C672.559 499.119 676.033 520.778 676.033 545.298C676.033 569.001 672.559 590.66 665.612 610.276C658.664 629.892 648.243 646.852 634.349 661.155C620.863 675.05 603.903 685.879 583.47 693.644C563.445 701.409 540.355 705.291 514.201 705.291C478.647 705.291 450.653 698.139 430.22 683.836C410.195 669.533 395.279 650.53 385.471 626.827C375.663 602.716 369.533 575.131 367.081 544.072C365.037 513.013 364.016 480.524 364.016 446.605C364.016 412.277 364.629 381.218 365.855 353.429C367.081 325.64 368.92 303.163 371.372 285.999C373.824 270.47 377.91 259.436 383.632 252.897C389.353 246.358 396.913 243.089 406.313 243.089C413.26 243.089 418.777 244.724 422.864 247.993C426.95 250.854 429.811 254.94 431.446 260.253C433.489 265.566 434.715 271.696 435.124 278.643C435.532 285.182 435.737 292.333 435.737 300.098ZM526.461 453.348C514.609 453.348 503.167 455.391 492.133 459.478C481.507 463.156 471.904 469.082 463.322 477.255C455.148 485.428 448.61 495.849 443.706 508.518C438.802 520.778 436.35 535.694 436.35 553.267C436.35 584.326 443.91 608.028 459.031 624.375C474.56 640.313 495.198 648.282 520.944 648.282C531.569 648.282 542.399 646.852 553.433 643.991C564.467 640.722 574.479 635.409 583.47 628.053C592.46 620.288 599.816 610.072 605.538 597.403C611.259 584.734 614.12 569.001 614.12 550.202C614.12 533.447 611.668 518.939 606.764 506.679C602.268 494.419 595.934 484.407 587.761 476.642C579.587 468.469 570.188 462.543 559.563 458.865C548.937 455.187 537.903 453.348 526.461 453.348Z" fill="white"/>
</g>
</svg>
